PathFileType	4	(X/Y/Z)	E:\Qualisys_Data\Carbon_Farble_Plate\Data\Amateur_Runner\S2\T2\S2T2V23_c3d.trc
DataRate	CameraRate	NumFrames	NumMarkers	Units	OrigDataRate	OrigDataStartFrame	OrigNumFrames
200.000000	200.000000	5	39	mm	200.000000	153	306
Frame#	Time	LSHO			RSHO			LICST			RICST			LASIS			LHEEL			RASIS			LTROC			RTROC			SACR			LTH1			LSK4			LTH2			LTH3			RHM5			LSK2			LTH4			RTH1			LTOE			RTH2			RTH3			RTH4			LLEP			RLEP			LSK1			LSK3			RSK1			LHM5			RSK2			LFT1			RSK3			RSK4			LLME			RLME			RTOE			RHEEL			RFT1			RFT2			LFT2			
		X1	Y1	Z1	X2	Y2	Z2	X3	Y3	Z3	X4	Y4	Z4	X5	Y5	Z5	X6	Y6	Z6	X7	Y7	Z7	X8	Y8	Z8	X9	Y9	Z9	X10	Y10	Z10	X11	Y11	Z11	X12	Y12	Z12	X13	Y13	Z13	X14	Y14	Z14	X15	Y15	Z15	X16	Y16	Z16	X17	Y17	Z17	X18	Y18	Z18	X19	Y19	Z19	X20	Y20	Z20	X21	Y21	Z21	X22	Y22	Z22	X23	Y23	Z23	X24	Y24	Z24	X25	Y25	Z25	X26	Y26	Z26	X27	Y27	Z27	X28	Y28	Z28	X29	Y29	Z29	X30	Y30	Z30	X31	Y31	Z31	X32	Y32	Z32	X33	Y33	Z33	X34	Y34	Z34	X35	Y35	Z35	X36	Y36	Z36	X37	Y37	Z37	X38	Y38	Z38	X39	Y39	Z39	

154	0.765	69.70149993896484	1503.97412109375	-424.0184326171875	9.822922706604004	1477.209228515625	-133.6490631103516	11.35394668579102	1031.548706054688	-447.2334594726562	13.4187536239624	1017.974731445312	-150.0672302246094	60.22301864624023	976.3325805664062	-435.6955261230469	-532.0466918945312	533.5592041015625	-325.3784484863281	69.67514038085938	972.11279296875	-182.2739105224609	-89.97663116455078	927.1301879882812	-450.5850830078125	-60.19828796386719	913.4976806640624	-140.2538299560547	-81.95621490478516	1068.687133789062	-303.9585266113281	-52.03786849975586	671.32861328125	-463.9092102050781	-387.4806213378906	554.8276977539062	-429.0364990234375	-130.2050170898438	699.8015747070312	-462.2387390136719	-87.2489013671875	575.1293334960938	-451.2236328125	347.4013366699219	150.9857025146484	-147.8984222412109	-290.9317626953125	571.4284057617188	-451.5624389648438	-165.7673797607422	607.3429565429688	-439.523193359375	147.8198394775391	680.60498046875	-134.5101928710938	-634.650146484375	313.5826721191406	-389.5426635742188	72.85772705078125	651.7283325195312	-126.9648208618164	178.4273681640625	587.4676513671875	-164.6164398193359	101.6708831787109	561.9656372070312	-157.0581207275391	-157.4608612060547	551.8209228515625	-449.2762756347656	147.2220001220703	543.9775390625	-156.0199432373047	-279.0126342773438	492.5514831542969	-451.3870239257812	-377.4613952636719	477.5369567871094	-436.6998901367188	208.0659027099609	436.4596252441406	-155.5596771240234	-641.566650390625	384.9492492675781	-427.0603637695312	130.8844299316406	420.7394714355469	-140.0502166748047	-559.0933227539062	527.5277099609375	-298.4082641601562	226.7317657470703	336.0437316894531	-163.7094116210938	149.1295166015625	324.0184631347656	-150.5497741699219	-552.266845703125	490.3651733398438	-396.5184936523438	228.9773864746094	142.3925323486328	-182.7700653076172	405.2935791015625	200.82275390625	-203.9373321533203	179.4245452880859	97.78225708007812	-241.4387817382812	210.11181640625	79.72064208984375	-269.2297058105469	192.9125823974609	70.70760345458984	-216.2872924804688	-568.5283813476562	548.668212890625	-348.3511352539062
155	0.77	91.15131378173828	1500.444580078125	-423.4889831542969	31.71010780334473	1472.704223632812	-131.9192657470703	32.65033721923828	1028.194946289062	-447.3454895019531	33.65545272827148	1014.455139160156	-149.8462066650391	81.80442810058594	973.0775146484376	-435.1299743652344	-503.4659423828125	541.063720703125	-324.0648193359375	89.84395599365234	968.8138427734376	-181.7738800048828	-67.94731903076172	923.3019409179688	-451.9540710449219	-40.33798217773438	909.7462158203124	-140.5925750732422	-61.33109664916992	1065.282470703125	-304.2293701171875	-25.91581535339355	666.74267578125	-464.0031127929688	-358.7636413574219	556.3247680664062	-430.2301940917969	-104.8534317016602	693.4945678710938	-462.7056579589844	-59.93394470214844	570.1273193359375	-452.1219787597656	364.2008972167969	145.8892669677734	-148.9073333740234	-261.7562866210938	569.113037109375	-452.3256225585938	-139.0199127197266	600.37060546875	-440.0093383789062	167.2713470458984	676.5882568359375	-134.1148681640625	-612.8130493164062	324.8078002929688	-390.2653198242188	93.25569915771484	646.6146240234375	-125.3604888916016	199.5768737792969	584.5787963867188	-166.4200286865234	122.5093612670898	558.0677490234375	-156.8100433349609	-129.9335479736328	544.9749755859375	-449.2172546386719	167.4525909423828	540.3742065429688	-156.3722686767578	-252.7551116943359	490.0612487792969	-451.2643432617188	-351.170654296875	477.8780517578125	-436.819091796875	226.9963989257812	432.2177734375	-155.8372497558594	-617.5380859375	396.1340637207031	-427.2466735839844	149.7523651123047	417.0685119628906	-140.6104278564453	-530.984375	535.4755859375	-297.2550048828125	245.2424163818359	331.7801513671875	-164.6871490478516	167.5129089355469	319.8642272949219	-151.5978240966797	-525.6607055664062	498.6248779296875	-395.518310546875	245.9410858154297	137.93408203125	-184.1780548095703	422.6339721679688	196.0909881591797	-204.1466064453125	196.702392578125	94.21884155273438	-243.9560394287109	227.3500213623047	76.47277069091797	-271.204833984375	210.1071472167969	66.3940200805664	-218.8473663330078	-540.0057983398438	557.2144775390625	-347.0661315917969
156	0.775	112.3801879882812	1496.609008789062	-422.4441833496094	53.65024185180664	1467.773193359375	-130.4490661621094	53.79766082763672	1024.354248046875	-446.9792785644531	53.44009399414062	1010.936767578125	-149.3960723876953	102.7900772094727	969.8084716796876	-434.7047424316406	-474.6716003417969	547.758544921875	-322.8058166503906	110.2352294921875	965.408447265625	-181.0850830078125	-45.71469116210938	919.080810546875	-452.7368774414062	-20.85527038574219	905.9627685546876	-139.8024139404297	-40.50558471679688	1061.780517578125	-304.2000427246094	-0.0729959458112716	661.6007690429688	-463.9223022460938	-329.7033996582031	557.7225341796875	-430.4707946777344	-79.5130844116211	686.958740234375	-462.9270324707031	-32.67171478271484	564.4007568359375	-452.5064086914062	380.2449645996094	140.0937042236328	-149.9186706542969	-232.3755340576172	566.7359619140625	-453.2267150878906	-112.2967071533203	593.568359375	-441.0876159667969	187.5303955078125	673.159423828125	-134.5075988769531	-589.8914794921875	334.7073364257812	-390.4386901855469	113.737174987793	642.5534057617188	-124.9844512939453	219.9365539550781	581.5183715820312	-168.1407012939453	142.8467254638672	554.052490234375	-157.7549591064453	-102.2202682495117	538.775390625	-450.8466186523438	187.8224334716797	536.5359497070312	-157.2876434326172	-225.7440490722656	487.4203796386719	-451.4660949707031	-325.1495361328125	479.9153442382812	-436.6459045410156	246.0754852294922	427.2502136230469	-156.3674011230469	-592.646728515625	407.0790405273438	-426.8707275390625	168.3684997558594	413.2457580566406	-140.5728454589844	-502.1513061523438	542.948974609375	-295.9956359863281	262.8539123535156	326.4984436035156	-165.731689453125	185.0750732421875	315.5842895507812	-152.635986328125	-498.0077819824219	506.5787353515625	-394.6923217773438	262.0301208496094	133.1521148681641	-185.6933898925781	438.8350524902344	190.3055114746094	-204.3545227050781	212.3419189453125	90.39875793457033	-245.7570648193359	243.2327728271484	72.45480346679688	-273.4179992675781	225.5195770263672	62.00879287719727	-221.3399658203125	-510.7239685058594	565.1094360351562	-345.7067565917969
157	0.78	133.7722320556641	1492.395751953125	-421.9309692382812	75.90310668945312	1462.563842773438	-129.102294921875	75.18721008300781	1020.653686523438	-446.7594299316406	73.62503051757812	1007.27880859375	-149.1446533203125	123.8319625854492	965.8389892578124	-433.8084106445312	-444.9658508300781	554.15380859375	-321.7157287597656	130.1496734619141	961.3622436523438	-180.0982055664062	-23.89364814758301	914.6736450195312	-454.2424011230469	-1.454105257987976	902.228515625	-139.3257141113281	-20.32122611999512	1057.660278320312	-304.0225524902344	25.53850173950195	656.6466674804688	-463.8139343261719	-300.4364318847656	558.4727172851562	-431.4466857910156	-54.07437515258789	680.8525390625	-463.1015014648438	-5.208106517791748	558.4874267578125	-453.4713439941406	394.9731750488281	133.5239868164062	-150.7757110595703	-202.5528717041016	563.9556274414062	-454.0650329589844	-85.03105163574219	586.5200805664062	-441.4118041992188	208.2594604492188	669.8300170898438	-135.3826904296875	-565.5885009765625	344.7199096679688	-390.7329711914062	134.0155487060547	639.3001098632812	-126.7440795898438	240.4139709472656	578.5729370117188	-170.3087768554688	163.9133911132812	550.77099609375	-158.6028137207031	-73.95336151123047	532.0784301757812	-452.2340087890625	208.7270355224609	533.00146484375	-158.0657806396484	-198.6214752197266	484.6779479980469	-451.8057556152344	-298.0619812011719	480.7590637207031	-436.7170715332031	264.4073181152344	422.4575805664062	-156.7400970458984	-566.422119140625	417.2245483398438	-427.8851013183594	187.0100250244141	409.3631286621094	-140.8307800292969	-472.5195007324219	549.5221557617188	-295.1002502441406	280.1544799804688	321.3742980957031	-166.4932098388672	202.5223388671875	311.4425964355469	-153.6338500976562	-469.2138977050781	513.9365844726562	-393.7030334472656	276.6031494140625	128.3248138427734	-187.2089080810547	454.0566101074219	183.8622894287109	-204.9296875	227.1678466796875	86.264404296875	-247.5416107177734	257.5954895019531	68.55654907226562	-275.5948791503906	239.7817535400391	57.45613479614258	-223.2538299560547	-480.9281005859375	572.3917236328125	-344.1265869140625
158	0.785	154.937744140625	1488.136840820312	-421.4942626953125	97.78559112548828	1457.038818359375	-127.6532592773438	96.00916290283205	1016.147277832031	-446.7078857421875	92.61320495605467	1002.871887207031	-149.6459808349609	144.9282379150391	961.7890014648438	-433.5543823242188	-414.7597351074219	560.1394653320312	-320.7770690917969	150.2928009033203	957.43798828125	-179.0382995605469	-2.447124719619751	909.6742553710938	-455.0022888183594	17.79030799865723	897.8885498046875	-138.802734375	-0.9106444120407104	1053.641845703125	-304.0923156738281	51.34777450561523	651.6760864257812	-463.9544677734375	-270.1923217773438	558.7971801757812	-432.1397094726562	-28.78984069824219	674.4511108398438	-463.1087036132812	22.29296493530273	553.00244140625	-454.390869140625	408.5314331054688	126.4734954833984	-152.8709564208984	-172.0552215576172	561.2587280273438	-454.7353820800781	-58.13039398193359	579.4347534179688	-441.7486267089844	229.5086669921875	666.697509765625	-136.5635375976562	-539.9400024414062	354.1064758300781	-390.68896484375	155.3814544677734	636.885986328125	-128.4358978271484	261.3997802734375	575.7691040039062	-171.7623901367188	184.9987030029297	548.2338256835938	-158.5207824707031	-45.87715148925781	525.5921020507812	-452.8873291015625	229.3040008544922	529.4907836914062	-158.7742309570312	-171.0756988525391	481.2516174316406	-452.0661315917969	-270.6015930175781	481.0138244628906	-436.44189453125	283.05810546875	417.0896301269531	-157.4855346679688	-539.3880004882812	426.3467712402344	-426.2141723632812	205.6963500976562	406.1136779785156	-141.9300231933594	-442.147705078125	555.9522705078125	-293.9070434570312	297.0591735839844	316.1309509277344	-167.609130859375	218.9022369384766	307.7585754394531	-154.4837951660156	-439.8076782226562	520.8043823242188	-392.7275695800781	290.6160888671875	122.8352355957031	-188.6086730957031	468.5254211425781	176.8073120117188	-206.3544921875	240.2891082763672	81.97455596923828	-249.2920227050781	270.4080200195312	64.17351531982422	-277.0465698242188	252.6138916015625	52.58766174316406	-225.4986572265625	-450.0842895507812	579.1268920898438	-342.769775390625
